<svg xmlns="http://www.w3.org/2000/svg" xmlns:xlink="http://www.w3.org/1999/xlink" viewBox="0 0 63.6 59.39"><defs><style>.cls-1{isolation:isolate;}.cls-2{fill:url(#linear-gradient);}.cls-3{fill:url(#linear-gradient-2);}.cls-4{fill:url(#linear-gradient-3);}.cls-5{fill:#c94130;}.cls-10,.cls-5{mix-blend-mode:multiply;}.cls-6{fill:url(#linear-gradient-4);}.cls-7{fill:url(#linear-gradient-6);}.cls-8{fill:url(#linear-gradient-7);}.cls-9{fill:url(#linear-gradient-9);}.cls-10{fill:#eec970;}.cls-11{fill:url(#linear-gradient-10);}.cls-12{fill:url(#linear-gradient-12);}.cls-13{fill:url(#linear-gradient-13);}.cls-14{fill:url(#linear-gradient-14);}.cls-15{fill:url(#linear-gradient-15);}.cls-16{fill:url(#linear-gradient-16);}.cls-17{fill:url(#linear-gradient-17);}.cls-18{fill:url(#linear-gradient-18);}.cls-19{fill:url(#linear-gradient-19);}.cls-20{fill:url(#linear-gradient-20);}.cls-21{fill:url(#linear-gradient-21);}.cls-22{fill:url(#linear-gradient-22);}.cls-23{fill:url(#linear-gradient-23);}</style><linearGradient id="linear-gradient" x1="31.65" y1="48.97" x2="31.65" y2="62.6" gradientUnits="userSpaceOnUse"><stop offset="0" stop-color="#b5691f"/><stop offset="0.08" stop-color="#cf8f32"/><stop offset="0.18" stop-color="#cf8f32"/><stop offset="0.27" stop-color="#dfb358"/><stop offset="0.34" stop-color="#fdf09d"/><stop offset="0.41" stop-color="#fbf6c2"/><stop offset="0.48" stop-color="#fdf09d"/><stop offset="0.59" stop-color="#dfb358"/><stop offset="0.67" stop-color="#cf8f32"/><stop offset="0.71" stop-color="#e2a339"/><stop offset="0.8" stop-color="#e5a53a"/><stop offset="1" stop-color="#b76a1f"/></linearGradient><linearGradient id="linear-gradient-2" x1="31.65" y1="58.86" x2="31.65" y2="43.98" gradientUnits="userSpaceOnUse"><stop offset="0" stop-color="#b76a1f"/><stop offset="0.12" stop-color="#e5a53a"/><stop offset="0.19" stop-color="#ce8626"/><stop offset="0.23" stop-color="#c37d28"/><stop offset="0.33" stop-color="#cf8f32"/><stop offset="0.41" stop-color="#dfb358"/><stop offset="0.52" stop-color="#fdf09d"/><stop offset="0.59" stop-color="#fbf6c2"/><stop offset="0.66" stop-color="#fdf09d"/><stop offset="0.73" stop-color="#dfb358"/><stop offset="0.82" stop-color="#cf8f32"/><stop offset="0.92" stop-color="#cf8f32"/><stop offset="1" stop-color="#b5691f"/></linearGradient><linearGradient id="linear-gradient-3" x1="24.44" y1="17.37" x2="16.45" y2="27.37" gradientUnits="userSpaceOnUse"><stop offset="0" stop-color="#6d1b1b"/><stop offset="0.37" stop-color="#6d1b1b"/><stop offset="0.48" stop-color="#721c1c"/><stop offset="0.62" stop-color="#811e1f"/><stop offset="0.69" stop-color="#8c2022"/><stop offset="1" stop-color="#4d1312"/></linearGradient><linearGradient id="linear-gradient-4" x1="50.37" y1="20.21" x2="-13.12" y2="20.21" gradientUnits="userSpaceOnUse"><stop offset="0" stop-color="#b5691f"/><stop offset="0.08" stop-color="#cf8f32"/><stop offset="0.18" stop-color="#cf8f32"/><stop offset="0.27" stop-color="#dfb358"/><stop offset="0.34" stop-color="#fdf09d"/><stop offset="0.41" stop-color="#fbf6c2"/><stop offset="0.48" stop-color="#fdf09d"/><stop offset="0.59" stop-color="#dfb358"/><stop offset="0.67" stop-color="#cf8f32"/><stop offset="0.77" stop-color="#c37d28"/><stop offset="0.81" stop-color="#ce8626"/><stop offset="0.88" stop-color="#e5a53a"/><stop offset="1" stop-color="#b76a1f"/></linearGradient><linearGradient id="linear-gradient-6" x1="-2446.23" y1="17.37" x2="-2454.22" y2="27.37" gradientTransform="matrix(-1, 0, 0, 1, -2407.07, 0)" xlink:href="#linear-gradient-3"/><linearGradient id="linear-gradient-7" x1="-2420.3" y1="20.21" x2="-2483.79" y2="20.21" gradientTransform="matrix(-1, 0, 0, 1, -2407.07, 0)" xlink:href="#linear-gradient-4"/><linearGradient id="linear-gradient-9" x1="-8.47" y1="28.01" x2="64.13" y2="28.01" xlink:href="#linear-gradient-4"/><linearGradient id="linear-gradient-10" x1="62.91" y1="16.13" x2="-0.59" y2="16.13" xlink:href="#linear-gradient-4"/><linearGradient id="linear-gradient-12" x1="25.45" y1="26.11" x2="32.84" y2="27.21" gradientUnits="userSpaceOnUse"><stop offset="0" stop-color="#e69cc0"/><stop offset="0.39" stop-color="#dbbad6"/><stop offset="0.96" stop-color="#b382b4"/></linearGradient><linearGradient id="linear-gradient-13" x1="30.14" y1="27.47" x2="38.41" y2="25.39" xlink:href="#linear-gradient-12"/><linearGradient id="linear-gradient-14" x1="35.51" y1="45.42" x2="35.51" y2="34.33" xlink:href="#linear-gradient-12"/><linearGradient id="linear-gradient-15" x1="28.1" y1="35.96" x2="28.1" y2="45.59" xlink:href="#linear-gradient-12"/><linearGradient id="linear-gradient-16" x1="522.85" y1="3.58" x2="529.95" y2="4.63" gradientTransform="matrix(0.97, -0.01, -0.42, 1.03, -454.43, 26.2)" xlink:href="#linear-gradient-12"/><linearGradient id="linear-gradient-17" x1="527.19" y1="4.94" x2="532.83" y2="3.52" gradientTransform="matrix(0.97, -0.01, -0.42, 1.03, -454.43, 26.2)" xlink:href="#linear-gradient-12"/><linearGradient id="linear-gradient-18" x1="531.39" y1="22.27" x2="531.39" y2="11.17" gradientTransform="matrix(0.97, -0.01, -0.42, 1.03, -454.43, 26.2)" xlink:href="#linear-gradient-12"/><linearGradient id="linear-gradient-19" x1="525.47" y1="12.24" x2="525.47" y2="22.47" gradientTransform="matrix(0.97, -0.01, -0.42, 1.03, -454.43, 26.2)" xlink:href="#linear-gradient-12"/><linearGradient id="linear-gradient-20" x1="-2081.16" y1="-13.79" x2="-2074.05" y2="-12.74" gradientTransform="matrix(-0.97, -0.01, 0.42, 1.03, -1999.49, 26.2)" xlink:href="#linear-gradient-12"/><linearGradient id="linear-gradient-21" x1="-2076.82" y1="-12.43" x2="-2071.18" y2="-13.85" gradientTransform="matrix(-0.97, -0.01, 0.42, 1.03, -1999.49, 26.2)" xlink:href="#linear-gradient-12"/><linearGradient id="linear-gradient-22" x1="-2072.62" y1="4.9" x2="-2072.62" y2="-6.2" gradientTransform="matrix(-0.97, -0.01, 0.42, 1.03, -1999.49, 26.2)" xlink:href="#linear-gradient-12"/><linearGradient id="linear-gradient-23" x1="-2078.53" y1="-5.13" x2="-2078.53" y2="5.1" gradientTransform="matrix(-0.97, -0.01, 0.42, 1.03, -1999.49, 26.2)" xlink:href="#linear-gradient-12"/></defs><title>Recurso 3</title><g class="cls-1"><g id="Capa_2" data-name="Capa 2"><g id="Capa_1-2" data-name="Capa 1"><path class="cls-2" d="M57.17,56c0-1.86-11.43-3.36-25.52-3.36S6.13,54.17,6.13,56c0,.41.56.8,1.57,1.17,3.6,1.28,13,2.2,24,2.2C45.75,59.39,57.17,57.88,57.17,56Z"/><path class="cls-3" d="M54.69,56.1c0-1.35-10.31-2.44-23-2.44s-23,1.09-23,2.44c0,.3.5.58,1.42.84,3.25.93,11.7,1.59,21.62,1.59C44.37,58.53,54.69,57.44,54.69,56.1Z"/><polygon class="cls-4" points="32.03 34.58 32.03 29.37 12.3 5.85 6.73 28.94 6.73 34.58 32.03 34.58"/><polygon class="cls-5" points="9.64 34.58 14.13 15.15 30.01 34.58 32.03 34.58 32.03 30.43 12.3 6.91 6.73 30 7.5 34.58 9.64 34.58"/><polygon class="cls-6" points="6.96 34.58 12.3 11.85 30.88 34.58 32.03 34.58 32.03 29.37 12.3 5.85 6.73 28.94 6.73 34.58 6.96 34.58"/><polygon class="cls-6" points="8.5 34.58 13.77 12.89 30.92 34.58 32.03 34.58 32.03 29.37 12.3 5.85 6.73 28.94 7.13 34.58 8.5 34.58"/><polygon class="cls-7" points="56.87 34.58 56.87 28.94 51.3 5.85 31.57 29.37 31.57 34.58 56.87 34.58"/><polygon class="cls-5" points="33.59 34.58 49.47 15.15 53.96 34.58 56.1 34.58 56.87 30 51.3 6.91 31.57 30.43 31.57 34.58 33.59 34.58"/><polygon class="cls-8" points="32.72 34.58 51.3 11.85 56.64 34.58 56.87 34.58 56.87 28.94 51.3 5.85 31.57 29.37 31.57 34.58 32.72 34.58"/><polygon class="cls-8" points="32.69 34.58 49.83 12.89 55.1 34.58 56.47 34.58 56.87 28.94 51.3 5.85 31.57 29.37 31.57 34.58 32.69 34.58"/><path class="cls-9" d="M31.65,52.66c14.1,0,25.52,1.51,25.52,3.36L63.6,5.38,45,25.89,31.8,0,18.57,25.89,0,5.38,6.13,56C6.13,54.17,17.55,52.66,31.65,52.66Z"/><polygon class="cls-10" points="45.03 27.02 31.8 1.13 18.57 27.02 0.17 6.69 0.97 13.06 18.91 33.39 31.8 7.5 44.69 33.39 62.63 13.06 63.44 6.69 45.03 27.02"/><polygon class="cls-11" points="0.81 11.76 18.91 32.27 31.8 6.38 44.69 32.27 62.79 11.76 62.59 13.37 63.6 5.38 45.03 25.89 31.8 0 18.57 25.89 0 5.38 1.01 13.37 0.81 11.76"/><polygon class="cls-11" points="0.81 11.76 18.91 32.27 31.8 6.38 44.69 32.27 62.79 11.76 62.59 13.37 63.6 5.38 45.03 25.89 31.8 0 18.57 25.89 0 5.38 1.01 13.37 0.81 11.76"/><polygon class="cls-12" points="31.8 16.47 24.39 34.73 31.8 37.63 31.8 16.47"/><polygon class="cls-13" points="31.8 16.47 39.21 34.73 31.8 37.63 31.8 16.47"/><polygon class="cls-14" points="31.8 45.15 39.21 34.73 31.8 37.63 31.8 45.15"/><polygon class="cls-15" points="31.8 45.15 24.39 34.73 31.8 37.63 31.8 45.15"/><polygon class="cls-16" points="60.73 16.86 47.04 33.92 52.37 37.52 60.73 16.86"/><polygon class="cls-17" points="60.73 16.86 58.26 34.49 52.37 37.52 60.73 16.86"/><polygon class="cls-18" points="49.23 45.3 58.26 34.49 52.37 37.52 49.23 45.3"/><polygon class="cls-19" points="49.23 45.3 47.04 33.92 52.37 37.52 49.23 45.3"/><polygon class="cls-20" points="2.68 16.86 16.37 33.92 11.04 37.52 2.68 16.86"/><polygon class="cls-21" points="2.68 16.86 5.15 34.49 11.04 37.52 2.68 16.86"/><polygon class="cls-22" points="14.17 45.3 5.15 34.49 11.04 37.52 14.17 45.3"/><polygon class="cls-23" points="14.17 45.3 16.37 33.92 11.04 37.52 14.17 45.3"/><path class="cls-10" d="M58.07,49c-1-.5-3.11-1.07-7.21-1.58a164.38,164.38,0,0,0-19.2-1,164.37,164.37,0,0,0-19.2,1c-4.05.5-6.12,1.06-7.17,1.56l.1.84c.68-.39,2.47-1,7.17-1.62a163.59,163.59,0,0,1,19.1-1,163.6,163.6,0,0,1,19.1,1c4.78.59,6.55,1.25,7.2,1.64Z"/></g></g></g></svg>