<svg xmlns="http://www.w3.org/2000/svg" xmlns:xlink="http://www.w3.org/1999/xlink" viewBox="0 0 55.28 59.42"><defs><style>.cls-1{isolation:isolate;}.cls-2{fill:#6d1b1b;}.cls-3{fill:url(#radial-gradient);}.cls-4{fill:url(#radial-gradient-2);}.cls-5{fill:url(#radial-gradient-3);}.cls-6{fill:url(#radial-gradient-4);}.cls-7{fill:url(#radial-gradient-5);}.cls-8{fill:url(#radial-gradient-6);}.cls-9{fill:#ded9da;opacity:0.33;mix-blend-mode:multiply;}.cls-10{fill:url(#radial-gradient-7);}.cls-11{fill:url(#radial-gradient-8);}.cls-12{fill:url(#radial-gradient-9);}.cls-13{fill:url(#radial-gradient-10);}.cls-14{fill:url(#radial-gradient-11);}.cls-15{fill:url(#radial-gradient-12);}</style><radialGradient id="radial-gradient" cx="25.63" cy="-0.6" r="37.41" gradientUnits="userSpaceOnUse"><stop offset="0.24" stop-color="#be033b"/><stop offset="0.53" stop-color="#9b0730"/><stop offset="0.74" stop-color="#7f0b27"/></radialGradient><radialGradient id="radial-gradient-2" cx="15.93" cy="25.76" r="31.82" gradientUnits="userSpaceOnUse"><stop offset="0.24" stop-color="#be033b"/><stop offset="0.53" stop-color="#9b0730"/><stop offset="0.74" stop-color="#7f0b27"/><stop offset="0.95" stop-color="#5c091b"/><stop offset="1" stop-color="#540818"/></radialGradient><radialGradient id="radial-gradient-3" cx="34.18" cy="32.08" r="24.99" xlink:href="#radial-gradient-2"/><radialGradient id="radial-gradient-4" cx="16.8" cy="14.63" r="3.45" gradientUnits="userSpaceOnUse"><stop offset="0" stop-color="#fff"/><stop offset="0.38" stop-color="#fdfdfd"/><stop offset="0.58" stop-color="#f5f5f5"/><stop offset="0.73" stop-color="#e9e8e9"/><stop offset="0.87" stop-color="#d7d5d6"/><stop offset="0.98" stop-color="#c0bcbf"/><stop offset="1" stop-color="#bcb8bb"/></radialGradient><radialGradient id="radial-gradient-5" cx="27.59" cy="14.63" r="3.45" xlink:href="#radial-gradient-4"/><radialGradient id="radial-gradient-6" cx="38.38" cy="14.63" r="3.45" xlink:href="#radial-gradient-4"/><radialGradient id="radial-gradient-7" cx="7.06" cy="33.72" r="3.45" xlink:href="#radial-gradient-4"/><radialGradient id="radial-gradient-8" cx="20.63" cy="41.6" r="3.45" xlink:href="#radial-gradient-4"/><radialGradient id="radial-gradient-9" cx="-2105.47" cy="26.33" r="3.45" gradientTransform="matrix(-1, 0, 0, 1, -2057.25, 0)" xlink:href="#radial-gradient-4"/><radialGradient id="radial-gradient-10" cx="-2128.21" cy="34.21" r="3.45" gradientTransform="matrix(-1, 0, 0, 1, -2093.56, 0)" xlink:href="#radial-gradient-4"/><radialGradient id="radial-gradient-11" cx="-2105.47" cy="41.1" r="3.45" gradientTransform="matrix(-1, 0, 0, 1, -2057.25, 0)" xlink:href="#radial-gradient-4"/><radialGradient id="radial-gradient-12" cx="-2128.21" cy="48.98" r="3.45" gradientTransform="matrix(-1, 0, 0, 1, -2093.56, 0)" xlink:href="#radial-gradient-4"/></defs><title>Recurso 2</title><g class="cls-1"><g id="Capa_2" data-name="Capa 2"><g id="Capa_1-2" data-name="Capa 1"><path class="cls-2" d="M55,17.55c-.07-1.37-.63-2.32-3.11-4A252.31,252.31,0,0,0,29.34.38a4.29,4.29,0,0,0-3.51,0A235.91,235.91,0,0,0,3.31,13.6c-1.79,1.2-2.95,2.32-3,4C0,26.2-.1,34.83.38,43.45a4,4,0,0,0,1.82,2.8c8.25,4.88,16.35,10.23,23.6,12.81a4.77,4.77,0,0,0,3.67,0c7.11-3,15.35-7.93,23.6-12.81a4,4,0,0,0,1.82-2.8A243.81,243.81,0,0,0,55,17.55Z"/><path class="cls-3" d="M29.34,28.88a4.28,4.28,0,0,1-3.51,0A254.16,254.16,0,0,1,3.31,15.66a1.15,1.15,0,0,1,0-2.06A254.56,254.56,0,0,1,25.83.38a4.29,4.29,0,0,1,3.51,0A254.3,254.3,0,0,1,51.86,13.6a1.15,1.15,0,0,1,0,2.06A254,254,0,0,1,29.34,28.88Z"/><path class="cls-4" d="M27.39,57.76c-.05,1-.76,1.59-1.58,1.29-7.23-2.64-15.35-7.93-23.6-12.81a4,4,0,0,1-1.82-2.8A245.49,245.49,0,0,1,.3,17.55c.05-1,.76-1.59,1.58-1.29,7.23,2.64,15.35,7.93,23.6,12.81a4,4,0,0,1,1.82,2.8A245.36,245.36,0,0,1,27.39,57.76Z"/><path class="cls-5" d="M27.89,57.76c.05,1,.76,1.59,1.58,1.29,7.23-2.64,15.35-7.93,23.6-12.81a4,4,0,0,0,1.82-2.8A245.49,245.49,0,0,0,55,17.55c-.05-1-.76-1.59-1.58-1.29C46.16,18.9,38,24.19,29.79,29.07A4,4,0,0,0,28,31.87,245.47,245.47,0,0,0,27.89,57.76Z"/><circle class="cls-6" cx="16.8" cy="14.63" r="3.45"/><circle class="cls-7" cx="27.59" cy="14.63" r="3.45"/><circle class="cls-8" cx="38.38" cy="14.63" r="3.45"/><path class="cls-9" d="M40.15,11.68a3.44,3.44,0,0,1-4.46,5.11,3.45,3.45,0,1,0,4.46-5.11Z"/><path class="cls-9" d="M18.57,11.68a3.44,3.44,0,0,1-4.46,5.11,3.45,3.45,0,1,0,4.46-5.11Z"/><path class="cls-9" d="M29.36,11.68a3.44,3.44,0,0,1-4.46,5.11,3.45,3.45,0,1,0,4.46-5.11Z"/><circle class="cls-10" cx="7.06" cy="33.72" r="3.45"/><path class="cls-9" d="M8.83,30.77a3.44,3.44,0,0,1-4.46,5.11,3.45,3.45,0,1,0,4.46-5.11Z"/><circle class="cls-11" cx="20.63" cy="41.6" r="3.45"/><path class="cls-9" d="M22.4,38.64a3.44,3.44,0,0,1-4.46,5.11,3.45,3.45,0,1,0,4.46-5.11Z"/><circle class="cls-12" cx="48.22" cy="26.33" r="3.45"/><path class="cls-9" d="M50,23.38a3.44,3.44,0,0,1-4.46,5.11A3.45,3.45,0,1,0,50,23.38Z"/><circle class="cls-13" cx="34.65" cy="34.21" r="3.45"/><path class="cls-9" d="M36.42,31.26A3.44,3.44,0,0,1,32,36.37a3.45,3.45,0,1,0,4.46-5.11Z"/><circle class="cls-14" cx="48.22" cy="41.1" r="3.45"/><path class="cls-9" d="M50,38.15a3.44,3.44,0,0,1-4.46,5.11A3.45,3.45,0,1,0,50,38.15Z"/><circle class="cls-15" cx="34.65" cy="48.98" r="3.45"/><path class="cls-9" d="M36.42,46A3.44,3.44,0,0,1,32,51.14,3.45,3.45,0,1,0,36.42,46Z"/></g></g></g></svg>