<svg xmlns="http://www.w3.org/2000/svg" xmlns:xlink="http://www.w3.org/1999/xlink" viewBox="0 0 61.42 58.06"><defs><style>.cls-1{fill:url(#radial-gradient);}.cls-2{fill:url(#radial-gradient-2);}.cls-3{fill:url(#radial-gradient-3);}.cls-4{fill:none;}.cls-5{fill:url(#radial-gradient-4);}.cls-6{fill:url(#radial-gradient-5);}.cls-7{fill:url(#radial-gradient-6);}.cls-8{fill:url(#linear-gradient);}.cls-9{fill:url(#linear-gradient-2);}.cls-10{fill:url(#linear-gradient-3);}.cls-11{fill:url(#linear-gradient-4);}.cls-12{fill:url(#linear-gradient-5);}.cls-13{fill:url(#linear-gradient-6);}.cls-14{fill:url(#linear-gradient-7);}.cls-15{fill:url(#linear-gradient-8);}.cls-16{fill:url(#radial-gradient-7);}</style><radialGradient id="radial-gradient" cx="29.66" cy="29.03" r="28.21" gradientUnits="userSpaceOnUse"><stop offset="0" stop-color="#c32664"/><stop offset="0.24" stop-color="#bb235d"/><stop offset="0.46" stop-color="#981f4a"/><stop offset="0.8" stop-color="#5a1929"/><stop offset="0.91" stop-color="#3a171f"/><stop offset="1" stop-color="#2c171d"/></radialGradient><radialGradient id="radial-gradient-2" cx="70.79" cy="31.58" r="0.42" gradientUnits="userSpaceOnUse"><stop offset="0" stop-color="#fff"/><stop offset="0.38" stop-color="#fdfdfd"/><stop offset="0.58" stop-color="#f5f5f5"/><stop offset="0.73" stop-color="#e9e8e9"/><stop offset="0.87" stop-color="#d7d5d6"/><stop offset="0.98" stop-color="#c0bcbf"/><stop offset="1" stop-color="#bcb8bb"/></radialGradient><radialGradient id="radial-gradient-3" cx="29.03" cy="29.03" r="33.71" xlink:href="#radial-gradient"/><radialGradient id="radial-gradient-4" cx="29.03" cy="28.33" r="35.88" xlink:href="#radial-gradient-2"/><radialGradient id="radial-gradient-5" cx="29.03" cy="29.03" r="28.03" gradientUnits="userSpaceOnUse"><stop offset="0" stop-color="#c32664"/><stop offset="0.47" stop-color="#bb235d"/><stop offset="0.6" stop-color="#98204c"/><stop offset="0.89" stop-color="#401822"/><stop offset="0.91" stop-color="#3a171f"/><stop offset="1" stop-color="#2c171d"/></radialGradient><radialGradient id="radial-gradient-6" cx="29.03" cy="29.03" r="26.1" gradientUnits="userSpaceOnUse"><stop offset="0" stop-color="#c32664"/><stop offset="0.24" stop-color="#bb235d"/><stop offset="0.34" stop-color="#b22258"/><stop offset="0.5" stop-color="#981f4a"/><stop offset="0.71" stop-color="#6f1b34"/><stop offset="0.8" stop-color="#5a1929"/><stop offset="0.91" stop-color="#3a171f"/><stop offset="1" stop-color="#2c171d"/></radialGradient><linearGradient id="linear-gradient" x1="-1691.48" y1="565.75" x2="-1629.95" y2="565.75" gradientTransform="translate(210.05 -1716.24) rotate(-65.25)" xlink:href="#radial-gradient-2"/><linearGradient id="linear-gradient-2" x1="-1691.47" y1="552.46" x2="-1629.95" y2="552.46" gradientTransform="translate(210.05 -1716.24) rotate(-65.25)" xlink:href="#radial-gradient-2"/><linearGradient id="linear-gradient-3" x1="-1691.47" y1="546.9" x2="-1629.95" y2="546.9" gradientTransform="translate(210.05 -1716.24) rotate(-65.25)" xlink:href="#radial-gradient-2"/><linearGradient id="linear-gradient-4" x1="-1691.47" y1="565.75" x2="-1629.97" y2="565.75" gradientTransform="translate(210.05 -1716.24) rotate(-65.25)" xlink:href="#radial-gradient-2"/><linearGradient id="linear-gradient-5" x1="-1691.47" y1="579.66" x2="-1629.95" y2="579.66" gradientTransform="translate(210.05 -1716.24) rotate(-65.25)" xlink:href="#radial-gradient-2"/><linearGradient id="linear-gradient-6" x1="-1691.47" y1="552.46" x2="-1629.95" y2="552.46" gradientTransform="translate(210.05 -1716.24) rotate(-65.25)" xlink:href="#radial-gradient-2"/><linearGradient id="linear-gradient-7" x1="-1691.47" y1="585.86" x2="-1629.95" y2="585.86" gradientTransform="translate(210.05 -1716.24) rotate(-65.25)" xlink:href="#radial-gradient-2"/><linearGradient id="linear-gradient-8" x1="-1691.46" y1="579.66" x2="-1629.95" y2="579.66" gradientTransform="translate(210.05 -1716.24) rotate(-65.25)" xlink:href="#radial-gradient-2"/><radialGradient id="radial-gradient-7" cx="29.03" cy="29.03" r="18.56" xlink:href="#radial-gradient-2"/></defs><title>Recurso 1</title><g id="Capa_2" data-name="Capa 2"><g id="Capa_1-2" data-name="Capa 1"><circle class="cls-1" cx="32.39" cy="29.03" r="29.03"/><path class="cls-2" d="M56.56,13a29.17,29.17,0,0,0-8.93-8.63H44.27L36.84,17.6,35.22.67h3.36a29,29,0,0,0-12.37,0L27.95,17.6,17.15,4.32A29.17,29.17,0,0,0,8.22,13L21.66,23.88,4.21,22.09A29,29,0,0,0,3.9,34.6l17.76-1.83-14,11.41a29.17,29.17,0,0,0,8.77,9.07l11.55-14.2-1.88,18.3a29,29,0,0,0,12.66,0H35.36l1.48-18.3L45,53.25h3.36a29.16,29.16,0,0,0,8.77-9.07H53.79L43.12,32.77l14.4,1.83h3.36a29,29,0,0,0-.3-12.51H57.22l-14.09,1.8L53.2,13Z"/><circle class="cls-3" cx="29.03" cy="29.03" r="29.03"/><path class="cls-4" d="M53.79,44.18a28.83,28.83,0,0,0,3.73-9.58L39.76,32.77Z"/><path class="cls-4" d="M44.27,4.32A28.86,28.86,0,0,0,35.22.67L33.47,17.6Z"/><path class="cls-4" d="M.54,34.6a28.83,28.83,0,0,0,3.73,9.58l14-11.41Z"/><path class="cls-4" d="M4.86,13a28.88,28.88,0,0,0-4,9.13l17.46,1.8Z"/><path class="cls-4" d="M13,53.25a28.86,28.86,0,0,0,9.66,4.11l1.88-18.3Z"/><path class="cls-4" d="M22.84.67a28.87,28.87,0,0,0-9.05,3.66L24.58,17.6Z"/><path class="cls-4" d="M39.76,23.88l17.46-1.8a28.87,28.87,0,0,0-4-9.13Z"/><path class="cls-4" d="M35.36,57.36A28.87,28.87,0,0,0,45,53.25L33.47,39.06Z"/><path class="cls-5" d="M53.2,13a29.17,29.17,0,0,0-8.93-8.63L33.47,17.6,35.22.67a29,29,0,0,0-12.37,0L24.58,17.6,13.79,4.32A29.17,29.17,0,0,0,4.86,13L18.3,23.88.84,22.09A29,29,0,0,0,.54,34.6L18.3,32.77l-14,11.41A29.17,29.17,0,0,0,13,53.25l11.55-14.2L22.7,57.36a29,29,0,0,0,12.66,0l-1.88-18.3L45,53.25a29.17,29.17,0,0,0,8.77-9.07l-14-11.41L57.52,34.6a29,29,0,0,0-.3-12.51l-17.46,1.8Z"/><circle class="cls-6" cx="29.03" cy="29.03" r="22.04"/><circle class="cls-7" cx="29.03" cy="29.03" r="16.49"/><path class="cls-4" d="M44.1,17.57l1.69-.83a20.54,20.54,0,0,0-4.11-4.2l-.95,1.6A18.76,18.76,0,0,1,44.1,17.57Z"/><path class="cls-8" d="M37,11.84a19,19,0,0,1,3.76,2.3l.95-1.6a20.7,20.7,0,0,0-9.6-4.06l-.61,1.78A18.88,18.88,0,0,1,37,11.84Z"/><path class="cls-9" d="M10.2,30.17l-1.81.46a20.82,20.82,0,0,0,3.35,9.77l1.67-.82A19,19,0,0,1,10.2,30.17Z"/><path class="cls-10" d="M11.9,21.09a18.91,18.91,0,0,1,2.67-4.22l-1.61-1a20.86,20.86,0,0,0-4.31,9.34l1.77.61A18.9,18.9,0,0,1,11.9,21.09Z"/><path class="cls-11" d="M21.14,46.15A18.88,18.88,0,0,1,16.36,43l-1,1.62a20.73,20.73,0,0,0,9.32,4.66l.6-1.76A18.89,18.89,0,0,1,21.14,46.15Z"/><path class="cls-12" d="M30.13,47.86l.47,1.82a20.82,20.82,0,0,0,9.94-3.41l-.82-1.67A19,19,0,0,1,30.13,47.86Z"/><path class="cls-13" d="M26.94,10.22l-.46-1.8a20.83,20.83,0,0,0-9.6,3.79l.82,1.68A19,19,0,0,1,26.94,10.22Z"/><path class="cls-14" d="M46.21,36.91a18.93,18.93,0,0,1-2.76,4.32l1.61,1a20.85,20.85,0,0,0,4.42-9.58L47.71,32A18.94,18.94,0,0,1,46.21,36.91Z"/><path class="cls-15" d="M47.84,27l1.81-.46a20.83,20.83,0,0,0-3.86-9.78l-1.69.83A19,19,0,0,1,47.84,27Z"/><polygon class="cls-16" points="29.03 17.59 32.74 25.12 41.05 26.33 35.04 32.19 36.46 40.46 29.03 36.56 21.6 40.46 23.02 32.19 17.01 26.33 25.31 25.12 29.03 17.59"/></g></g></svg>